<?xml version="1.0" encoding="UTF-8"?>
<svg id="Ebene_1" xmlns="http://www.w3.org/2000/svg" version="1.1" viewBox="0 0 384 512">
  <!-- Generator: Adobe Illustrator 29.3.1, SVG Export Plug-In . SVG Version: 2.1.0 Build 151)  -->
  <defs>
    <style>
      .st0 {
        fill: #f5f4ed;
      }
    </style>
  </defs>
  <path class="st0" d="M0,32l34.9,395.8,157.1,52.2,157.1-52.2,34.9-395.8H0ZM313.1,112l-4.8,47.3-115.3,49.3h-.3c0,.1,111.5.1,111.5.1l-12.8,146.6-98.2,28.7-98.8-29.2-6.4-73.9h48.9l3.2,38.3,52.6,13.3,54.7-15.4,3.7-61.6-166.3-.5h0c0-.1-.2,0-.2,0l-3.6-46.3,112.1-46.7,6.5-2.7h-122.9l-5.8-47.3h242.2Z"/>
</svg>